<svg width="21.169922" height="21.170013" viewBox="0 0 21.1699 21.17" fill="none" xmlns="http://www.w3.org/2000/svg" xmlns:xlink="http://www.w3.org/1999/xlink">
	<desc>
			Created with Pixso.
	</desc>
	<defs/>
	<path id="monetization_on" d="M9.63 17.99L11.48 17.99L11.48 16.67C12.36 16.51 13.12 16.16 13.76 15.63C14.39 15.11 14.71 14.32 14.71 13.28C14.71 12.54 14.5 11.86 14.07 11.24C13.65 10.62 12.8 10.09 11.53 9.63C10.47 9.27 9.74 8.97 9.34 8.7C8.93 8.44 8.73 8.07 8.73 7.62C8.73 7.16 8.89 6.8 9.22 6.53C9.54 6.27 10.02 6.13 10.63 6.13C11.2 6.13 11.64 6.27 11.96 6.54C12.27 6.82 12.5 7.16 12.64 7.56L14.34 6.88C14.14 6.26 13.79 5.72 13.27 5.26C12.75 4.8 12.17 4.55 11.53 4.49L11.53 3.17L9.68 3.17L9.68 4.49C8.8 4.69 8.11 5.08 7.62 5.66C7.12 6.24 6.88 6.89 6.88 7.62C6.88 8.45 7.12 9.12 7.6 9.63C8.09 10.14 8.85 10.58 9.89 10.95C11 11.36 11.78 11.72 12.21 12.04C12.64 12.35 12.86 12.77 12.86 13.28C12.86 13.86 12.65 14.29 12.23 14.56C11.82 14.84 11.32 14.97 10.74 14.97C10.16 14.97 9.64 14.79 9.19 14.43C8.74 14.07 8.41 13.53 8.2 12.8L6.45 13.49C6.7 14.34 7.08 15.02 7.6 15.54C8.12 16.06 8.8 16.42 9.63 16.61L9.63 17.99ZM10.58 21.17C9.12 21.17 7.74 20.89 6.45 20.33C5.16 19.78 4.04 19.02 3.09 18.07C2.14 17.12 1.38 16 0.83 14.71C0.27 13.42 0 12.04 0 10.58C0 9.12 0.27 7.74 0.83 6.45C1.38 5.16 2.14 4.04 3.09 3.09C4.04 2.14 5.16 1.38 6.45 0.83C7.74 0.27 9.12 0 10.58 0C12.04 0 13.42 0.27 14.71 0.83C16 1.38 17.12 2.14 18.07 3.09C19.02 4.04 19.78 5.16 20.33 6.45C20.89 7.74 21.16 9.12 21.16 10.58C21.16 12.04 20.89 13.42 20.33 14.71C19.78 16 19.02 17.12 18.07 18.07C17.12 19.02 16 19.78 14.71 20.33C13.42 20.89 12.04 21.17 10.58 21.17Z" fill="#FFFFFF" fill-opacity="1.000000" fill-rule="nonzero"/>
</svg>
