<svg width="29.041748" height="21.166779" viewBox="0 0 29.0417 21.1668" fill="none" xmlns="http://www.w3.org/2000/svg" xmlns:xlink="http://www.w3.org/1999/xlink">
	<desc>
			Created with Pixso.
	</desc>
	<defs/>
	<path id="Vector" d="M10.96 20.89L10.95 20.89L10.92 20.87C10.77 20.79 10.62 20.71 10.48 20.62C8.7 19.56 7.04 18.32 5.52 16.92C2.84 14.42 0 10.7 0 6.12C0 2.7 2.87 9.15e-5 6.34 9.15e-5C7.3 -0.01 8.26 0.2 9.13 0.62C10 1.03 10.77 1.64 11.37 2.39C11.97 1.64 12.74 1.03 13.61 0.62C14.48 0.2 15.44 -0.01 16.4 9.15e-5C19.87 9.15e-5 22.75 2.7 22.75 6.12C22.75 10.7 19.9 14.42 17.22 16.92C15.7 18.32 14.04 19.56 12.26 20.62C12.12 20.7 11.97 20.79 11.82 20.87L11.79 20.89L11.78 20.89L11.78 20.89C11.65 20.96 11.51 20.99 11.37 20.99C11.23 20.99 11.09 20.96 10.96 20.89L10.96 20.89Z" fill="#FFFFFF" fill-opacity="1.000000" fill-rule="nonzero"/>
	<path id="offline_bolt" d="M21.26 18.96L24.45 12.73L22.25 12.73L22.25 8.7L18.95 14.93L21.26 14.93L21.26 18.96ZM21.7 21.16C20.69 21.16 19.74 20.97 18.84 20.58C17.95 20.2 17.17 19.68 16.52 19.02C15.86 18.36 15.33 17.58 14.95 16.69C14.56 15.8 14.37 14.84 14.37 13.83C14.37 12.81 14.56 11.86 14.95 10.97C15.33 10.08 15.86 9.3 16.52 8.64C17.17 7.98 17.95 7.46 18.84 7.07C19.74 6.69 20.69 6.5 21.7 6.5C22.72 6.5 23.67 6.69 24.56 7.07C25.46 7.46 26.23 7.98 26.89 8.64C27.55 9.3 28.07 10.08 28.46 10.97C28.84 11.86 29.04 12.81 29.04 13.83C29.04 14.84 28.84 15.8 28.46 16.69C28.07 17.58 27.55 18.36 26.89 19.02C26.23 19.68 25.46 20.2 24.56 20.58C23.67 20.97 22.72 21.16 21.7 21.16Z" fill="#894189" fill-opacity="1.000000" fill-rule="nonzero"/>
	<path id="offline_bolt" d="M21.64 18.5L24.54 12.83L22.54 12.83L22.54 9.16L19.54 14.83L21.64 14.83L21.64 18.5ZM22.04 20.5C21.11 20.5 20.25 20.32 19.44 19.97C18.63 19.62 17.92 19.15 17.32 18.55C16.72 17.95 16.25 17.24 15.89 16.43C15.55 15.62 15.37 14.75 15.37 13.83C15.37 12.91 15.55 12.04 15.89 11.23C16.25 10.42 16.72 9.71 17.32 9.11C17.92 8.51 18.63 8.04 19.44 7.69C20.25 7.34 21.11 7.16 22.04 7.16C22.96 7.16 23.83 7.34 24.64 7.69C25.45 8.04 26.15 8.51 26.75 9.11C27.35 9.71 27.83 10.42 28.18 11.23C28.53 12.04 28.7 12.91 28.7 13.83C28.7 14.75 28.53 15.62 28.18 16.43C27.83 17.24 27.35 17.95 26.75 18.55C26.15 19.15 25.45 19.62 24.64 19.97C23.83 20.32 22.96 20.5 22.04 20.5Z" fill="#FFFFFF" fill-opacity="1.000000" fill-rule="nonzero"/>
</svg>
